<?xml version="1.0" encoding="UTF-8"?>
<svg id="Capa_2" data-name="Capa 2" xmlns="http://www.w3.org/2000/svg" viewBox="0 0 359.77 569.54">
  <defs>
    <style>
      .cls-1 {
        fill: #5180c1;
      }
    </style>
  </defs>
  <g id="Layer_1" data-name="Layer 1">
    <g>
      <path class="cls-1" d="M261.98,276.1H112.08c-25.2,0-46.71,8.92-64.69,26.75-17.83,17.83-26.75,39.42-26.75,64.69v110.76c0,25.13,8.92,46.64,26.75,64.48,17.98,17.84,39.49,26.75,64.69,26.75h149.9c25.2,0,46.71-8.92,64.69-26.75,17.83-17.83,26.75-39.35,26.75-64.48v-110.76c0-25.27-8.92-46.85-26.75-64.69-17.98-17.83-39.49-26.75-64.69-26.75ZM320.44,478.31c0,16-5.73,29.8-17.2,41.26-11.32,11.47-25.05,17.2-41.26,17.2H112.08c-16.21,0-29.94-5.73-41.26-17.2-11.47-11.46-17.2-25.27-17.2-41.26v-110.76c0-16.14,5.73-29.94,17.2-41.48,11.32-11.46,25.05-17.2,41.26-17.2h149.9c16.21,0,29.94,5.73,41.26,17.2,11.47,11.54,17.2,25.34,17.2,41.48v110.76Z"/>
      <path class="cls-1" d="M229.42,20.06C214.3,6.67,198.52,0,182.01,0h-4.45c-16.44,0-32.42,6.61-48,19.89-12.93,11.12-26.72,29.75-41.38,55.91L0,236.31h35.54L117.17,87.66c12.66-22.8,23.87-38.53,33.62-47.08,9.81-8.66,18.77-13.05,26.79-13.05h4.44c7.56,0,15.71,3.99,24.53,11.85,8.88,7.81,20.95,23.94,36.13,48.45l81.56,148.48h35.54l-88.78-161.02c-16.71-27.02-30.57-45.48-41.57-55.23Z"/>
      <path class="cls-1" d="M228.7,361.81c-18.95,0-28.42,7.58-37.89,22.73-9.47-15.16-18.95-22.73-37.89-22.73-20.92,0-37.89,13.58-37.89,30.31,0,30.31,37.89,60.63,75.79,90.94,37.89-30.31,75.79-60.63,75.79-90.94,0-16.73-16.98-30.31-37.89-30.31Z"/>
    </g>
  </g>
</svg>