<?xml version="1.0" encoding="UTF-8"?>
<svg id="Capa_2" data-name="Capa 2" xmlns="http://www.w3.org/2000/svg" viewBox="0 0 3124.23 334.69">
  <defs>
    <style>
      .cls-1 {
        letter-spacing: -.01em;
      }

      .cls-2 {
        fill: #0d0d0d;
        font-family: MontserratRoman-Medium, Montserrat;
        font-size: 209.34px;
        font-variation-settings: 'wght' 500;
        font-weight: 500;
      }

      .cls-3 {
        stroke-miterlimit: 10;
      }

      .cls-3, .cls-4 {
        fill: #5180c1;
        stroke: #5180c1;
        stroke-width: 5px;
      }

      .cls-4 {
        stroke-linejoin: round;
      }
    </style>
  </defs>
  <g id="Layer_1" data-name="Layer 1">
    <g>
      <text class="cls-2" transform="translate(1465.02 280.48)"><tspan x="0" y="0">RESIDENCES </tspan><tspan class="cls-1" x="1448.41" y="0">V</tspan><tspan x="1594.32" y="0">I</tspan></text>
      <g>
        <polygon class="cls-3" points="133 199.07 18.65 199.07 18.65 137.72 2.5 137.72 2.5 281.43 18.65 281.43 18.65 215.23 133 215.23 133 281.43 149.02 281.43 149.02 137.72 133 137.72 133 199.07"/>
        <path class="cls-3" d="M293.63,137.72h-73.41c-12.41,0-22.95,4.37-31.68,13.1-8.73,8.73-13.1,19.31-13.1,31.68v98.93h16.15v-66.21h130.68v66.21h16.15v-98.93c0-12.37-4.4-22.95-13.21-31.68-8.74-8.73-19.24-13.1-31.58-13.1ZM322.26,199.07h-130.68v-16.57c0-7.9,2.77-14.66,8.32-20.31,5.62-5.61,12.37-8.42,20.31-8.42h73.41c7.87,0,14.59,2.81,20.21,8.42,5.62,5.65,8.42,12.41,8.42,20.31v16.57Z"/>
        <path class="cls-3" d="M509.02,209.85c12.27-7.94,18.37-18.68,18.37-32.2,0-10.71-3.74-19.65-11.27-26.83-8.25-8.73-19.27-13.1-33.1-13.1h-92.1c-7.18,0-13.35,2.56-18.48,7.63-5.1,5.1-7.63,10.92-7.63,17.47v118.61h16.15v-63.88h102.05c7.87,0,14.59,2.81,20.21,8.42,5.62,5.61,8.42,12.41,8.42,20.31v35.15h16.15v-35.15c0-15.29-6.27-27.45-18.79-36.43ZM483.02,201.5h-102.05v-38.68c0-2.08.94-4.13,2.84-6.1,1.94-1.94,4.33-2.95,7.11-2.95h92.1c9.15,0,16.29,2.74,21.42,8.15,4.61,3.92,6.9,9.15,6.9,15.74s-2.36,12.3-7.11,17.05c-5.13,4.54-12.2,6.79-21.21,6.79Z"/>
        <path class="cls-3" d="M743.09,137.72h-44.58c-12.51,0-22.88,6.41-31.09,19.2-6.83-12.79-16.12-19.2-27.9-19.2h-44.58c-10.09,0-18.96,4.44-26.62,13.31-7.59,8.8-12.27,19.83-14.11,33v97.4h16.05v-88.87c0-10.47,2.43-19.55,7.31-27.21,4.92-7.69,10.71-11.58,17.37-11.58h44.58c4.85,0,9.12,2.95,12.69,8.84,3.64,5.89,5.48,12.76,5.48,20.62v98.2h16.15v-88.87c0-10.47,2.43-19.55,7.31-27.21,4.89-7.69,10.68-11.58,17.37-11.58h44.58c4.82,0,9.05,2.95,12.69,8.84,3.61,5.89,5.41,12.76,5.41,20.62v98.2h16.12v-98.2c0-12.51-3.33-23.26-10.05-32.2-6.69-8.87-14.73-13.31-24.16-13.31Z"/>
        <path class="cls-3" d="M1111.31,137.72h-73.41c-12.34,0-22.84,4.37-31.58,13.1-8.81,8.73-13.21,19.31-13.21,31.68v98.93h16.15v-98.93c0-7.9,2.81-14.66,8.42-20.31,5.55-5.61,12.27-8.42,20.21-8.42h73.41c7.94,0,14.7,2.81,20.31,8.42,5.55,5.65,8.32,12.41,8.32,20.31v98.82h16.15v-98.82c0-12.37-4.37-22.95-13.1-31.68-8.8-8.73-19.34-13.1-31.68-13.1Z"/>
        <path class="cls-3" d="M1329.34,170.34c0,13.27-2.81,22.7-8.42,28.32-5.61,5.61-12.34,8.42-20.21,8.42h-73.41c-7.94,0-14.7-2.81-20.31-8.42-5.55-5.62-8.32-15.04-8.32-28.32v-32.62h-16.15v32.62c0,17.75,4.37,30.95,13.1,39.69,8.73,8.73,19.27,13.1,31.68,13.1h73.41c10.78,0,20.31-3.43,28.63-10.33v23.95c0,7.83-2.81,14.59-8.42,20.21-5.61,5.62-12.34,8.42-20.21,8.42h-118.2v16.05h118.2c12.34,0,22.84-4.37,31.58-13.1,8.8-8.73,13.21-19.27,13.21-31.58v-99.03h-16.15v32.62Z"/>
        <path class="cls-3" d="M921.92,137.72h-73.41c-12.34,0-22.88,4.37-31.68,13.1-8.73,8.73-13.1,19.31-13.1,31.68v54.25c0,12.31,4.37,22.84,13.1,31.58,8.8,8.73,19.34,13.1,31.68,13.1h73.41c12.34,0,22.88-4.37,31.68-13.1,8.73-8.73,13.1-19.27,13.1-31.58v-54.25c0-12.37-4.37-22.95-13.1-31.68-8.8-8.73-19.34-13.1-31.68-13.1ZM950.55,236.75c0,7.83-2.81,14.59-8.42,20.21-5.55,5.62-12.27,8.42-20.21,8.42h-73.41c-7.94,0-14.66-2.81-20.21-8.42-5.62-5.61-8.42-12.37-8.42-20.21v-54.25c0-7.9,2.81-14.66,8.42-20.31,5.55-5.61,12.27-8.42,20.21-8.42h73.41c7.94,0,14.66,2.81,20.21,8.42,5.62,5.65,8.42,12.41,8.42,20.31v54.25Z"/>
        <path class="cls-4" d="M905.97,12.33c-7.4-6.56-15.13-9.83-23.22-9.83h-2.18c-8.05,0-15.88,3.24-23.51,9.74-6.33,5.44-13.09,14.57-20.26,27.38l-43.19,78.61h17.41l39.97-72.8c6.2-11.17,11.69-18.87,16.46-23.06,4.81-4.24,9.19-6.39,13.12-6.39h2.17c3.7,0,7.7,1.95,12.02,5.81,4.35,3.82,10.26,11.72,17.7,23.73l39.94,72.72h17.41l-43.48-78.86c-8.18-13.23-14.97-22.28-20.36-27.05Z"/>
        <path class="cls-3" d="M905.62,179.7c-9.28,0-13.92,3.71-18.56,11.13-4.64-7.42-9.28-11.13-18.56-11.13-10.24,0-18.56,6.65-18.56,14.85,0,14.85,18.56,29.69,37.12,44.54,18.56-14.85,37.12-29.69,37.12-44.54,0-8.2-8.31-14.85-18.56-14.85Z"/>
      </g>
    </g>
  </g>
</svg>