<?xml version="1.0" encoding="UTF-8"?>
<svg id="Capa_2" data-name="Capa 2" xmlns="http://www.w3.org/2000/svg" viewBox="0 0 1337.17 443.94">
  <defs>
    <style>
      .cls-1 {
        fill: #f7f7f7;
      }
    </style>
  </defs>
  <g id="Layer_1" data-name="Layer 1">
    <g>
      <polygon class="cls-1" points="1140.08 141.6 1009.22 141.6 1001.07 141.6 967.79 174.88 967.79 183.03 967.79 313.89 967.79 322.04 1001.07 355.32 1009.22 355.32 1140.08 355.32 1148.23 355.32 1181.5 322.04 1181.5 314.88 1181.5 313.89 1026.18 313.89 1009.22 296.93 1009.22 199.88 1026.07 183.03 1123.21 183.03 1140.08 199.9 1140.08 215.94 1123.21 232.81 1061.18 232.81 1061.18 274.24 1140.08 274.24 1148.23 274.24 1181.5 240.96 1181.5 232.81 1181.5 183.03 1181.5 174.88 1148.23 141.6 1140.08 141.6"/>
      <path class="cls-1" d="M297.79,175.27v146.39l33.66,33.66h146.39l33.66-33.66v-146.39l-33.66-33.66h-146.39l-33.66,33.66ZM453.59,313.89h-97.87l-16.49-16.49v-97.87l16.49-16.49h97.87l16.49,16.49v97.87l-16.49,16.49Z"/>
      <polyline class="cls-1" points="398.54 256.06 398.54 271.1 451.64 271.1 451.64 256.06 398.54 256.06"/>
      <polygon class="cls-1" points="1337.17 181.38 1337.17 141.6 1273.31 141.6 1273.23 141.54 1260.17 157.38 1260.17 141.6 1218.74 141.6 1218.74 355.32 1260.17 355.32 1260.17 214.7 1287.64 181.38 1337.17 181.38"/>
      <polygon class="cls-1" points="664.56 181.38 664.56 141.6 600.69 141.6 600.61 141.54 587.56 157.38 587.56 141.6 546.13 141.6 546.13 355.32 587.56 355.32 587.56 214.7 615.02 181.38 664.56 181.38"/>
      <rect class="cls-1" x="888.34" y="141.6" width="41.43" height="213.72"/>
      <circle class="cls-1" cx="908.6" cy="78.39" r="26.65" transform="translate(6.3 210.85) rotate(-13.28)"/>
      <polygon class="cls-1" points="232.83 0 33.5 0 0 33.5 0 170.28 24.96 170.28 49.71 145.53 49.71 67.07 67.07 49.71 199.26 49.71 216.61 67.07 216.61 158.29 199.26 175.64 80.81 175.64 56.05 200.39 56.05 225.35 56.05 225.35 56.05 364.87 82.45 382.16 95.12 382.16 133.16 338.69 118.29 310.72 137.95 291.49 137.95 248.46 120.91 225.35 232.83 225.35 266.33 191.86 266.33 33.5 232.83 0"/>
      <circle class="cls-1" cx="132.33" cy="100.66" r="26.65" transform="translate(-19.59 33.1) rotate(-13.28)"/>
      <path class="cls-1" d="M169.24,442.97l-4.1-10.22h-22.59l-4.1,10.22h-5.27l18.68-45.57h4.17l18.49,45.57h-5.27ZM144.37,428.19h18.94l-9.44-23.57-9.5,23.57Z"/>
      <path class="cls-1" d="M204.2,397.4h4.56v45.57h-4.56v-3.97c-2.67,2.93-6.44,4.69-10.61,4.69-8.53,0-15.49-6.38-15.49-15.3s6.97-15.43,15.49-15.43c4.17,0,7.94,1.76,10.61,4.75v-20.31ZM204.2,428.39c0-6.31-4.69-10.87-10.61-10.87s-10.61,4.56-10.61,10.87,4.62,10.74,10.61,10.74,10.61-4.49,10.61-10.74Z"/>
      <path class="cls-1" d="M218.85,442.97v-29.29h4.17v4.3c1.04-2.08,4.17-5.01,9.37-5.01,4.75,0,8.27,2.28,10.09,5.73,1.17-2.28,4.1-5.73,10.03-5.73,7.1,0,11.46,5.08,11.46,11.65v18.36h-4.56v-17.38c0-5.01-2.8-8.2-7.49-8.2s-8.07,3.58-8.07,9.11v16.47h-4.56v-17.38c0-5.01-2.99-8.2-7.68-8.2s-8.2,3.58-8.2,9.11v16.47h-4.56Z"/>
      <path class="cls-1" d="M272.89,402.48c0-1.95,1.56-3.51,3.45-3.51s3.52,1.56,3.52,3.51-1.56,3.45-3.52,3.45-3.45-1.5-3.45-3.45ZM274.06,442.97v-29.29h4.56v29.29h-4.56Z"/>
      <path class="cls-1" d="M289.1,442.97v-29.29h4.17v4.3c1.04-2.08,4.3-5.01,9.5-5.01,7.1,0,11.59,5.08,11.59,11.65v18.36h-4.56v-17.38c0-5.01-3.12-8.2-7.81-8.2s-8.33,3.58-8.33,9.11v16.47h-4.56Z"/>
      <path class="cls-1" d="M323.28,402.48c0-1.95,1.56-3.51,3.45-3.51s3.52,1.56,3.52,3.51-1.56,3.45-3.52,3.45-3.45-1.5-3.45-3.45ZM324.45,442.97v-29.29h4.56v29.29h-4.56Z"/>
      <path class="cls-1" d="M336.88,437.24l3.97-2.34c1.3,2.67,4.04,4.36,6.77,4.36,3.91,0,6.12-1.63,6.12-4.3s-2.47-4.1-6.51-4.95c-4.1-.85-9.24-2.93-9.24-8.85,0-4.3,3.58-8.2,9.89-8.2,4.56,0,8.14,2.28,9.63,6.05l-3.71,2.34c-.85-2.86-3.45-4.23-5.92-4.23-3.25,0-5.14,1.76-5.14,3.97,0,2.93,2.54,4.04,6.31,4.75,7.42,1.43,9.44,5.27,9.44,9.11,0,4.49-3.52,8.72-10.87,8.72-5.34,0-8.79-2.86-10.74-6.44Z"/>
      <path class="cls-1" d="M378.81,443.29c-5.92,0-10.48-3.25-10.48-10.48v-14.91h-5.27v-3.32h.13c3.39,0,6.44-2.15,6.44-7.94v-.13h3.25v7.16h9.18v4.23h-9.18v14.91c0,4.56,3.06,6.25,6.25,6.25h2.93v4.23h-3.26Z"/>
      <path class="cls-1" d="M390.53,442.97v-29.29h4.17v4.69c1.3-3.19,4.95-5.4,9.05-5.4h2.02v4.62h-2.02c-5.4,0-8.66,3.84-8.66,9.18v16.21h-4.56Z"/>
      <path class="cls-1" d="M411.95,434.24c0-5.21,4.23-8.53,9.83-8.53h7.03c2.15,0,3.52-1.3,3.52-3.12,0-2.28-2.47-5.21-7.49-5.21-4.43,0-7.03,2.41-8.27,5.6l-3.58-2.34c1.82-4.36,5.66-7.68,11.85-7.68,7.62,0,12.24,4.95,12.24,10.87v19.14h-4.17v-4.3c-.91,2.08-4.56,5.01-9.57,5.01-6.9,0-11.39-4.23-11.39-9.44ZM432.52,430.14v-.39h-10.68c-2.99,0-5.01,1.89-5.01,4.49,0,2.73,2.28,5.01,6.51,5.01,5.79,0,9.18-3.71,9.18-9.11Z"/>
      <path class="cls-1" d="M445.21,428.32c0-8.92,6.97-15.36,15.49-15.36,5.73,0,10.74,2.86,13.41,7.49l-3.97,2.54c-1.82-3.32-5.4-5.47-9.44-5.47-5.99,0-10.61,4.56-10.61,10.81s4.62,10.81,10.61,10.81c4.04,0,7.62-2.15,9.44-5.47l3.97,2.54c-2.67,4.62-7.68,7.49-13.41,7.49-8.53,0-15.49-6.44-15.49-15.36Z"/>
      <path class="cls-1" d="M481.09,402.48c0-1.95,1.56-3.51,3.45-3.51s3.51,1.56,3.51,3.51-1.56,3.45-3.51,3.45-3.45-1.5-3.45-3.45ZM482.26,442.97v-29.29h4.56v29.29h-4.56Z"/>
      <path class="cls-1" d="M495.34,428.39c0-8.98,6.97-15.43,15.49-15.43s15.49,6.44,15.49,15.43-6.9,15.3-15.49,15.3-15.49-6.38-15.49-15.3ZM521.45,428.39c0-6.31-4.69-10.87-10.61-10.87s-10.61,4.56-10.61,10.87,4.62,10.74,10.61,10.74,10.61-4.49,10.61-10.74ZM507.65,408.21l3.12-8.59h5.73l-5.4,8.59h-3.45Z"/>
      <path class="cls-1" d="M534.8,442.97v-29.29h4.17v4.3c1.04-2.08,4.3-5.01,9.5-5.01,7.1,0,11.59,5.08,11.59,11.65v18.36h-4.56v-17.38c0-5.01-3.12-8.2-7.81-8.2s-8.33,3.58-8.33,9.11v16.47h-4.56Z"/>
      <path class="cls-1" d="M612.2,397.4h4.56v45.57h-4.56v-3.97c-2.67,2.93-6.44,4.69-10.61,4.69-8.53,0-15.49-6.38-15.49-15.3s6.97-15.43,15.49-15.43c4.17,0,7.94,1.76,10.61,4.75v-20.31ZM612.2,428.39c0-6.31-4.69-10.87-10.61-10.87s-10.61,4.56-10.61,10.87,4.62,10.74,10.61,10.74,10.61-4.49,10.61-10.74Z"/>
      <path class="cls-1" d="M624.9,428.32c0-8.27,6.12-15.36,15.23-15.36s16.01,7.42,14.84,16.86h-25.13c.78,5.99,5.86,9.31,10.61,9.31,3.97,0,7.68-2.02,9.63-5.34l3.71,2.41c-2.67,4.62-7.68,7.49-13.35,7.49-8.85,0-15.56-7.03-15.56-15.36ZM649.96,425.59c-.33-4.04-4.17-8.14-9.83-8.14s-9.05,3.52-10.09,8.14h19.92Z"/>
      <path class="cls-1" d="M679.85,434.24c0-5.21,4.23-8.53,9.83-8.53h7.03c2.15,0,3.52-1.3,3.52-3.12,0-2.28-2.47-5.21-7.49-5.21-4.43,0-7.03,2.41-8.27,5.6l-3.58-2.34c1.82-4.36,5.66-7.68,11.85-7.68,7.62,0,12.24,4.95,12.24,10.87v19.14h-4.17v-4.3c-.91,2.08-4.56,5.01-9.57,5.01-6.9,0-11.39-4.23-11.39-9.44ZM700.42,430.14v-.39h-10.68c-2.99,0-5.01,1.89-5.01,4.49,0,2.73,2.28,5.01,6.51,5.01,5.79,0,9.18-3.71,9.18-9.11Z"/>
      <path class="cls-1" d="M713.12,428.32c0-8.92,6.97-15.36,15.49-15.36,5.73,0,10.74,2.86,13.41,7.49l-3.97,2.54c-1.82-3.32-5.4-5.47-9.44-5.47-5.99,0-10.61,4.56-10.61,10.81s4.62,10.81,10.61,10.81c4.04,0,7.62-2.15,9.44-5.47l3.97,2.54c-2.67,4.62-7.68,7.49-13.41,7.49-8.53,0-15.49-6.44-15.49-15.36Z"/>
      <path class="cls-1" d="M762.66,443.29c-5.92,0-10.48-3.25-10.48-10.48v-14.91h-5.27v-3.32h.13c3.39,0,6.44-2.15,6.44-7.94v-.13h3.26v7.16h9.18v4.23h-9.18v14.91c0,4.56,3.06,6.25,6.25,6.25h2.93v4.23h-3.26Z"/>
      <path class="cls-1" d="M773.21,402.48c0-1.95,1.56-3.51,3.45-3.51s3.52,1.56,3.52,3.51-1.56,3.45-3.52,3.45-3.45-1.5-3.45-3.45ZM774.38,442.97v-29.29h4.56v29.29h-4.56Z"/>
      <path class="cls-1" d="M800.09,443.94l-15.23-30.27h5.21l10.03,20.57,10.09-20.57h5.21l-15.23,30.27h-.06Z"/>
      <path class="cls-1" d="M818,428.39c0-8.98,6.97-15.43,15.49-15.43s15.49,6.44,15.49,15.43-6.9,15.3-15.49,15.3-15.49-6.38-15.49-15.3ZM844.1,428.39c0-6.31-4.69-10.87-10.61-10.87s-10.61,4.56-10.61,10.87,4.62,10.74,10.61,10.74,10.61-4.49,10.61-10.74Z"/>
      <path class="cls-1" d="M854.85,437.24l3.97-2.34c1.3,2.67,4.04,4.36,6.77,4.36,3.91,0,6.12-1.63,6.12-4.3s-2.47-4.1-6.51-4.95c-4.1-.85-9.24-2.93-9.24-8.85,0-4.3,3.58-8.2,9.9-8.2,4.56,0,8.14,2.28,9.63,6.05l-3.71,2.34c-.85-2.86-3.45-4.23-5.92-4.23-3.26,0-5.14,1.76-5.14,3.97,0,2.93,2.54,4.04,6.31,4.75,7.42,1.43,9.44,5.27,9.44,9.11,0,4.49-3.52,8.72-10.87,8.72-5.34,0-8.79-2.86-10.74-6.44Z"/>
      <path class="cls-1" d="M901,402.48c0-1.95,1.56-3.51,3.45-3.51s3.52,1.56,3.52,3.51-1.56,3.45-3.52,3.45-3.45-1.5-3.45-3.45ZM902.18,442.97v-29.29h4.56v29.29h-4.56Z"/>
      <path class="cls-1" d="M917.21,442.97v-29.29h4.17v4.3c1.04-2.08,4.3-5.01,9.5-5.01,7.1,0,11.59,5.08,11.59,11.65v18.36h-4.56v-17.38c0-5.01-3.12-8.2-7.81-8.2s-8.33,3.58-8.33,9.11v16.47h-4.56Z"/>
      <path class="cls-1" d="M952.57,442.97v-29.29h4.17v4.3c1.04-2.08,4.17-5.01,9.37-5.01,4.75,0,8.27,2.28,10.09,5.73,1.17-2.28,4.1-5.73,10.03-5.73,7.1,0,11.46,5.08,11.46,11.65v18.36h-4.56v-17.38c0-5.01-2.8-8.2-7.49-8.2s-8.07,3.58-8.07,9.11v16.47h-4.56v-17.38c0-5.01-2.99-8.2-7.68-8.2s-8.2,3.58-8.2,9.11v16.47h-4.56Z"/>
      <path class="cls-1" d="M1005.82,428.39c0-8.98,6.97-15.43,15.49-15.43s15.49,6.44,15.49,15.43-6.9,15.3-15.49,15.3-15.49-6.38-15.49-15.3ZM1031.93,428.39c0-6.31-4.69-10.87-10.61-10.87s-10.61,4.56-10.61,10.87,4.62,10.74,10.61,10.74,10.61-4.49,10.61-10.74Z"/>
      <path class="cls-1" d="M1075.94,428.39c0,8.92-6.97,15.3-15.49,15.3-4.17,0-7.94-1.76-10.61-4.69v3.97h-4.56v-45.57h4.56v20.31c2.67-2.99,6.44-4.75,10.61-4.75,8.53,0,15.49,6.44,15.49,15.43ZM1071.05,428.39c0-6.31-4.62-10.87-10.61-10.87s-10.61,4.56-10.61,10.87,4.69,10.74,10.61,10.74,10.61-4.49,10.61-10.74Z"/>
      <path class="cls-1" d="M1083.23,402.48c0-1.95,1.56-3.51,3.45-3.51s3.52,1.56,3.52,3.51-1.56,3.45-3.52,3.45-3.45-1.5-3.45-3.45ZM1084.4,442.97v-29.29h4.56v29.29h-4.56Z"/>
      <path class="cls-1" d="M1108.88,443.42c-6.12,0-9.76-3.45-9.76-10.16v-35.87h4.56v35.87c0,3.71,2.08,5.73,5.6,5.73v4.43h-.39Z"/>
      <path class="cls-1" d="M1115.91,402.48c0-1.95,1.56-3.51,3.45-3.51s3.52,1.56,3.52,3.51-1.56,3.45-3.52,3.45-3.45-1.5-3.45-3.45ZM1117.08,442.97v-29.29h4.56v29.29h-4.56Z"/>
      <path class="cls-1" d="M1130.49,434.24c0-5.21,4.23-8.53,9.83-8.53h7.03c2.15,0,3.52-1.3,3.52-3.12,0-2.28-2.47-5.21-7.49-5.21-4.43,0-7.03,2.41-8.27,5.6l-3.58-2.34c1.82-4.36,5.66-7.68,11.85-7.68,7.62,0,12.24,4.95,12.24,10.87v19.14h-4.17v-4.3c-.91,2.08-4.56,5.01-9.57,5.01-6.9,0-11.39-4.23-11.39-9.44ZM1151.07,430.14v-.39h-10.68c-2.99,0-5.01,1.89-5.01,4.49,0,2.73,2.28,5.01,6.51,5.01,5.79,0,9.18-3.71,9.18-9.11Z"/>
      <path class="cls-1" d="M1165.72,442.97v-29.29h4.17v4.69c1.3-3.19,4.95-5.4,9.05-5.4h2.02v4.62h-2.02c-5.4,0-8.66,3.84-8.66,9.18v16.21h-4.56Z"/>
      <path class="cls-1" d="M1187.59,402.48c0-1.95,1.56-3.51,3.45-3.51s3.52,1.56,3.52,3.51-1.56,3.45-3.52,3.45-3.45-1.5-3.45-3.45ZM1188.76,442.97v-29.29h4.56v29.29h-4.56Z"/>
      <path class="cls-1" d="M1201.85,428.39c0-8.98,6.97-15.43,15.49-15.43s15.49,6.44,15.49,15.43-6.9,15.3-15.49,15.3-15.49-6.38-15.49-15.3ZM1227.95,428.39c0-6.31-4.69-10.87-10.61-10.87s-10.61,4.56-10.61,10.87,4.62,10.74,10.61,10.74,10.61-4.49,10.61-10.74Z"/>
      <path class="cls-1" d="M1238.69,437.24l3.97-2.34c1.3,2.67,4.04,4.36,6.77,4.36,3.91,0,6.12-1.63,6.12-4.3s-2.47-4.1-6.51-4.95c-4.1-.85-9.24-2.93-9.24-8.85,0-4.3,3.58-8.2,9.9-8.2,4.56,0,8.14,2.28,9.63,6.05l-3.71,2.34c-.85-2.86-3.45-4.23-5.92-4.23-3.26,0-5.14,1.76-5.14,3.97,0,2.93,2.54,4.04,6.31,4.75,7.42,1.43,9.44,5.27,9.44,9.11,0,4.49-3.52,8.72-10.87,8.72-5.34,0-8.79-2.86-10.74-6.44Z"/>
      <polygon class="cls-1" points="847.73 141.6 776.36 141.6 776.36 102.31 752.33 102.31 734.93 102.31 701.46 141.6 701.46 150.43 701.46 183.03 734.93 183.03 734.93 355.32 776.36 355.32 776.36 183.03 847.73 183.03 847.73 141.6"/>
    </g>
  </g>
</svg>